<svg enable-background="new 0 0 945 495" viewBox="0 0 945 495" xmlns="http://www.w3.org/2000/svg" xmlns:xlink="http://www.w3.org/1999/xlink"><defs><path id="SVGID_1_" d="M0 0H945V495H0Z"/><clipPath id="SVGID_00000017511556058549744270000008099499597785433506_"><use xlink:href="#SVGID_1_"/></clipPath></defs><path clip-path="url(#SVGID_00000017511556058549744270000008099499597785433506_)" d="M-19-20.4H984.2V535.4H-19Z" fill="#f7f7f7"/><path clip-path="url(#SVGID_00000017511556058549744270000008099499597785433506_)" d="M554.2 25.1H365.6c-40.9 0-78.8 21.8-99.2 57.3L172 245.7c-20.5 35.4-20.5 79.1 0 114.6l94.3 163.4c20.5 35.5 58.3 57.3 99.2 57.3h188.6c40.9 0 78.8-21.8 99.2-57.3l94.3-163.4c20.5-35.4 20.5-79.1 0-114.6L653.4 82.3C632.9 46.9 595.1 25.1 554.2 25.1z" fill="#ff7059"/><path clip-path="url(#SVGID_00000017511556058549744270000008099499597785433506_)" d="M262.6 535.4c4.2-20.9 38.8-239.4 38.8-239.4 8.9-27.9 39.9-53.4 60.9-69l45.2-33.5c5.3-4 55.1-42.5 61.4-42.6 6.2 0 58.8 38.1 64.2 42.1l45.5 33.1c21.2 15.4 37.6 38.9 46.7 66.8 0 0 16.9 231.7 19.7 257.2" fill="#3d3d3d"/><g clip-path="url(#SVGID_00000017511556058549744270000008099499597785433506_)"><path d="M501.8 115.7l12.7 47c7.4 27.2-8.7 55.3-36 62.7l-46.1 12.5c-27.2 7.4-55.3-8.7-62.7-36l-13.1-48.3c-9.4-34.6-.6-71.6 23.3-98.2l6-6.6c8.6-9.6 22-13.4 34.3-9.7l9.8 3C465.1 52.6 492.2 80.4 501.8 115.7L501.8 115.7z"/><path d="M503.9 205.1l-46.3 28.2-55-4-12.5-92.8 76.9-20.8L503.9 205.1z" fill="#f4c9b8"/><path d="M443.8 182.6c-26.6 7.2-50.2-.6-58.1-25.9l-12.6-40.1c-8.7-27.7 7.4-57 35.3-64.6 28-7.6 56.7 9.6 63.1 37.9l9.3 41C486.8 156.8 470.4 175.4 443.8 182.6z" fill="#f4c9b8"/><g fill="#cea193"><path d="M471 87.9c.2.7.3 1.4.5 2l.5 2.4 8.8 38.5c.6 2.4.9 4.8 1.1 7.1l-63.3-6.2c-11.7-1.1-22.9 4.6-28.7 14.8l-4.8 8.4-12.1-38.3c-.3-.8-.5-1.6-.7-2.4-7.1-26.9 8.9-54.8 36-62.2C435.6 44.7 463.7 60.9 471 87.9L471 87.9z"/><path d="M388.8 126.1c-1.6-6.1-7.9-9.7-14-8-6.1 1.6-9.7 7.9-8 14 1.6 6.1 9.3 14.7 15.4 13C388.2 143.5 390.5 132.2 388.8 126.1z"/><path d="M484.8 100.1c-1.6-6.1-7.9-9.7-14-8-6.1 1.6-9.7 7.9-8 14 1.6 6.1 9.3 14.7 15.4 13C484.2 117.5 486.4 106.2 484.8 100.1z"/></g><path d="M430.8 143.8c-.5.1-1 0-1.3-.3-.6-.5-.7-1.5-.1-2.1.6-.7 15.6-17.4 29.4-18.1.8-.1 1.5.6 1.5 1.4 0 .8-.6 1.5-1.4 1.5-12.6.6-27.3 16.9-27.4 17.1C431.3 143.5 431 143.7 430.8 143.8z"/><path d="M439.4 106.8c2.1 3.5 3.2 6.7 1.6 7.6-1.6.9-3.8-1.6-5.8-5.2C433.2 105.8 437.4 103.3 439.4 106.8L439.4 106.8z"/><path d="M404.2 116.4c2 3.5 3.2 6.7 1.6 7.6-1.6.9-3.8-1.6-5.8-5.2S402.1 112.9 404.2 116.4L404.2 116.4z"/><path d="M398.9 121.4c-1.9.5-3.7 1-5.6 1.5-1.9.5-3.9-.7-4.4-2.7-.5-1.9.7-4 2.7-4.4 26.4-6.5 53.3-18.2 53.6-18.4 1.9-.8 4 0 4.8 1.9.8 1.8 0 4-1.9 4.8C447.8 104.3 424 114.6 398.9 121.4z"/><path d="M444.1 181.6c-3 .8-6 1.5-9 1.9-1.9.3-2 2.9-.1 3.3 11.4 2.3 32.7 2.4 54.1-17.5l-8-19.3C477 165.3 463.1 176.4 444.1 181.6L444.1 181.6z" fill="#cea193"/><path d="M430 42.1l-9.8-3c-12.3-3.7-25.7.1-34.3 9.7l-5.9 6.7c-23.9 26.7-32.7 63.7-23.3 98.2l16.1 59c3.8 14.1 15.4 24.7 29.8 27.3l40.5 7.2c11.1 2 22.5-1.1 31.1-8.4l31.4-26.7c11.1-9.5 15.8-24.5 11.9-38.6l-15.6-57.7C492.2 80.4 465.1 52.6 430 42.1L430 42.1zM430.5 218.1l-44.8-20c-4.6-2-8-6-9.3-10.8L366 148.5c-1.2-4.3-.5-8.8 1.6-12.6l13.2-23c5.8-10.1 17.1-16 28.7-14.8l52 5.1c11.7 1.2 21.6 9.4 24.7 20.8l9.1 33.5c1.3 4.8.4 9.9-2.5 13.9l-25.8 36.6C458.8 219.7 443.5 223.9 430.5 218.1L430.5 218.1z" fill="#3d3d3d"/></g><path clip-path="url(#SVGID_00000017511556058549744270000008099499597785433506_)" d="M516.3 370l141.2 86.8c33.1 20.3 76.8 9.9 97.1-23.2l6.9-11.3c20.3-33.1 9.9-76.8-23.2-97.1L554.1 209c-23.3 13.7-33.7 19.6-54 52.6l-6.9 11.3C472.8 306 483.2 349.7 516.3 370z" fill="#3d3d3d"/><g clip-path="url(#SVGID_00000017511556058549744270000008099499597785433506_)" fill="#bcbcbc"><path d="M1074.5 471.6h-65.1c-25.2 0-45.7-20.5-45.7-45.7v-33.6c0-25.2 20.5-45.7 45.7-45.7h65.1c25.2 0 45.7 20.5 45.7 45.7v33.6C1120.2 451.1 1099.7 471.6 1074.5 471.6zM1009.4 366.5c-14.2 0-25.7 11.5-25.7 25.7v33.6c0 14.2 11.5 25.7 25.7 25.7h65.1c14.2 0 25.7-11.5 25.7-25.7v-33.6c0-14.2-11.5-25.7-25.7-25.7H1009.4z"/><path d="M901.4 471.6h-66.8c-24.8 0-44.9-20.1-44.9-44.9v-35.3c0-24.8 20.1-44.9 44.9-44.9h66.8c24.8 0 44.9 20.1 44.9 44.9v35.3C946.3 451.4 926.1 471.6 901.4 471.6zM834.6 366.5c-13.7 0-24.9 11.2-24.9 24.9v35.3c0 13.7 11.2 24.9 24.9 24.9h66.8c13.7 0 24.9-11.2 24.9-24.9v-35.3c0-13.7-11.2-24.9-24.9-24.9H834.6z"/><path d="M996.9 419h-93.9c-5.5 0-10-4.5-10-10s4.5-10 10-10h93.9c5.5 0 10 4.5 10 10S1002.5 419 996.9 419z"/><path d="M726.5 471.6h-65.1c-25.2 0-45.7-20.5-45.7-45.7v-33.6c0-25.2 20.5-45.7 45.7-45.7h65.1c25.2 0 45.7 20.5 45.7 45.7v33.6C772.3 451.1 751.8 471.6 726.5 471.6zM661.4 366.5c-14.2 0-25.7 11.5-25.7 25.7v33.6c0 14.2 11.5 25.7 25.7 25.7h65.1c14.2 0 25.7-11.5 25.7-25.7v-33.6c0-14.2-11.5-25.7-25.7-25.7H661.4z"/><path d="M538.7 471.6h-29.9c-5.5 0-10-4.5-10-10s4.5-10 10-10h29.9c21.9 0 39.6-19.1 39.6-42.5s-17.8-42.5-39.6-42.5h-41.8c-.4 0-.9 0-1.3 0-5.5.2-10.2-4.1-10.4-9.6-.2-5.5 4.1-10.2 9.6-10.4.7 0 1.4 0 2.1 0h41.8c32.9 0 59.6 28.1 59.6 62.5C598.3 443.5 571.5 471.6 538.7 471.6z"/><path d="M649 419h-82.7c-5.5 0-10-4.5-10-10s4.5-10 10-10H649c5.5 0 10 4.5 10 10S654.5 419 649 419z"/><path d="M819.5 419h-82.7c-5.5 0-10-4.5-10-10s4.5-10 10-10h82.7c5.5 0 10 4.5 10 10S825 419 819.5 419z"/></g><path clip-path="url(#SVGID_00000017511556058549744270000008099499597785433506_)" d="M659.8 317.3c6 7.9 18.5 24.4 18.5 24.4 1.8 2.3 1.4 5.7-.8 7.6L614.9 402c-1.8 1.5-4.1 2.2-6.4 1.8-4-.6-6.8-3.9-6.7-7.8l1.3-32.6c.6-15.4 9.9-29.4 24.3-36.3 0 0 17.5-8.4 25.4-12.2C652.8 315 656.4 312.8 659.8 317.3z" fill="#f4c9b8"/><path clip-path="url(#SVGID_00000017511556058549744270000008099499597785433506_)" d="M428.7 343.2l-141.2 86.8c-33.1 20.3-76.8 9.9-97.1-23.2l-6.9-11.3c-20.3-33.1-9.9-76.8 23.2-97.1l166-85.7c23.3 13.7 24.7 15.3 72.3 22.1l6.9 11.3C472.2 279.1 461.8 322.8 428.7 343.2z" fill="#3d3d3d"/><g clip-path="url(#SVGID_00000017511556058549744270000008099499597785433506_)" fill="#bcbcbc"><path d="M-173.2 401v-33.6c0-25.2 20.5-45.7 45.7-45.7h65.1c25.2 0 45.7 20.5 45.7 45.7V401c0 25.2-20.5 45.7-45.7 45.7h-65.1C-152.7 446.7-173.2 426.2-173.2 401zM-127.4 341.7c-14.2 0-25.7 11.5-25.7 25.7V401c0 14.2 11.5 25.7 25.7 25.7h65.1c14.2 0 25.7-11.5 25.7-25.7v-33.6c0-14.2-11.5-25.7-25.7-25.7H-127.4z"/><path d="M.8 401.8v-35.3c0-24.8 20.1-44.9 44.9-44.9h66.8c24.8 0 44.9 20.1 44.9 44.9v35.3c0 24.8-20.1 44.9-44.9 44.9H45.7C20.9 446.7.8 426.6.8 401.8zM45.7 341.7c-13.7 0-24.9 11.2-24.9 24.9v35.3c0 13.7 11.2 24.9 24.9 24.9h66.8c13.7 0 24.9-11.2 24.9-24.9v-35.3c0-13.7-11.2-24.9-24.9-24.9H45.7z"/><path d="M-49.9 394.2H44c5.5 0 10-4.5 10-10s-4.5-10-10-10h-93.9c-5.5 0-10 4.5-10 10S-55.4 394.2-49.9 394.2z"/><path d="M174.8 401v-33.6c0-25.2 20.5-45.7 45.7-45.7h65.1c25.2 0 45.7 20.5 45.7 45.7V401c0 25.2-20.5 45.7-45.7 45.7h-65.1C195.3 446.7 174.8 426.2 174.8 401zM220.5 341.7c-14.2 0-25.7 11.5-25.7 25.7V401c0 14.2 11.5 25.7 25.7 25.7h65.1c14.2 0 25.7-11.5 25.7-25.7v-33.6c0-14.2-11.5-25.7-25.7-25.7H220.5z"/><path d="M408.4 446.7h29.9c5.5 0 10-4.5 10-10s-4.5-10-10-10h-29.9c-21.9 0-39.6-19.1-39.6-42.5s17.8-42.5 39.6-42.5h41.8c.4 0 .9 0 1.3 0 5.5.2 10.2-4.1 10.4-9.6.2-5.5-4.1-10.2-9.6-10.4-.7 0-1.4 0-2.1 0h-41.8c-32.9 0-59.6 28.1-59.6 62.5C348.8 418.7 375.5 446.7 408.4 446.7z"/><path d="M298.1 394.2h82.7c5.5 0 10-4.5 10-10s-4.5-10-10-10h-82.7c-5.5 0-10 4.5-10 10S292.6 394.2 298.1 394.2z"/><path d="M127.6 394.2h82.7c5.5 0 10-4.5 10-10s-4.5-10-10-10h-82.7c-5.5 0-10 4.5-10 10S122 394.2 127.6 394.2z"/></g><path clip-path="url(#SVGID_00000017511556058549744270000008099499597785433506_)" d="M283.2 291.4c-6 7.9-18.5 24.4-18.5 24.4-1.8 2.3-1.4 5.7.8 7.6l62.6 52.8c1.8 1.5 4.1 2.2 6.4 1.8 4-.6 6.8-3.9 6.7-7.8l-1.3-32.6c-.6-15.4-9.9-29.4-24.3-36.3 0 0-17.5-8.4-25.4-12.2C290.2 289.1 286.6 286.9 283.2 291.4z" fill="#f4c9b8"/></svg>