<svg enable-background="new 0 0 1200 1101.3" viewBox="0 0 1200 1101.3" xmlns="http://www.w3.org/2000/svg" xmlns:xlink="http://www.w3.org/1999/xlink"><defs><path id="SVGID_1_" d="M20 0h1160c11 0 20 7.4 20 16.4v1068.4c0 9.1-9 16.4-20 16.4H20c-11 0-20-7.4-20-16.4V16.4C0 7.4 9 0 20 0z"/><clipPath id="SVGID_00000179610822419687471820000007991313792048650170_"><use xlink:href="#SVGID_1_"/></clipPath></defs><path clip-path="url(#SVGID_00000179610822419687471820000007991313792048650170_)" d="M20 0h1160c11 0 20 7.4 20 16.4v1068.4c0 9.1-9 16.4-20 16.4H20c-11 0-20-7.4-20-16.4V16.4C0 7.4 9 0 20 0z" fill="#ffffff"/><g clip-path="url(#SVGID_00000179610822419687471820000007991313792048650170_)"><path d="M360.9 108.3c-4.8 0-7.9 2.5-7.9 5.8 0 3.8 4.1 5.2 7.1 6l3.8 1c5 1.2 11.3 4 11.3 11 0 6.7-5.3 11.5-14.5 11.5-8.8 0-14.3-4.4-14.7-11.5h5.9c.3 4.3 4.1 6.3 8.7 6.3 5 0 8.7-2.5 8.7-6.4 0-3.5-3.2-4.9-7.4-6l-4.6-1.3c-6.3-1.7-10.2-4.9-10.2-10.4 0-6.8 6-11.3 13.9-11.3 8 0 13.5 4.6 13.7 10.9H369C368.6 110.4 365.4 108.3 360.9 108.3z"/><path d="M400.6 113.5h5.8V143h-5.6v-5.1h-.3c-1.4 3.1-4.4 5.5-8.8 5.5-5.7 0-9.7-3.8-9.7-11.1v-18.7h5.7v18c0 4 2.5 6.6 6 6.6 3.2 0 6.9-2.4 6.9-7.4V113.5z"/><path d="M414 113.5h5.6v4.8h.5c1-1.8 3-5.2 8.5-5.2 7.1 0 12.4 5.6 12.4 15.2 0 9.5-5.2 15.2-12.3 15.2-5.4 0-7.5-3.3-8.5-5.2h-.3V154H414V113.5zM427.3 138.7c5.1 0 7.8-4.5 7.8-10.4 0-5.9-2.6-10.2-7.8-10.2-5 0-7.7 4.1-7.7 10.2C419.6 134.5 422.4 138.7 427.3 138.7z"/><path d="M447.3 113.5h5.6v4.8h.5c1-1.8 3-5.2 8.5-5.2 7.1 0 12.4 5.6 12.4 15.2 0 9.5-5.2 15.2-12.3 15.2-5.4 0-7.5-3.3-8.5-5.2h-.3V154h-5.7V113.5zM460.6 138.7c5.1 0 7.8-4.5 7.8-10.4 0-5.9-2.6-10.2-7.8-10.2-5 0-7.7 4.1-7.7 10.2C452.9 134.5 455.7 138.7 460.6 138.7z"/><path d="M486.4 143h-5.7v-39.3h5.7V143z"/><path d="M493.8 153.4l1.4-4.7c3.1.9 5.2.5 6.7-3.4l.7-2-10.8-29.8h6.1l7.5 22.9h.3l7.5-22.9h6.2l-12.1 33.4c-1.7 4.6-4.7 7.1-9.4 7.1C496 154 494.5 153.7 493.8 153.4z"/><path d="M537.7 128.4c0-9 5.4-15.2 13.7-15.2 6.7 0 11.5 4 12.2 9.9h-5.6c-.6-2.8-2.8-5.1-6.5-5.1-4.8 0-8 4-8 10.3 0 6.4 3.1 10.5 8 10.5 3.3 0 5.8-1.9 6.5-5.1h5.6c-.6 5.7-5.1 9.9-12.1 9.9C542.8 143.6 537.7 137.3 537.7 128.4z"/><path d="M575.4 143h-5.7v-39.3h5.7v14.6h.4c1.4-3.2 4.1-5.2 8.7-5.2 6.1 0 10.1 3.8 10.1 11.1V143h-5.7v-18c0-4.3-2.4-6.8-6.3-6.8-4.1 0-7.1 2.7-7.1 7.4V143z"/><path d="M600.8 134.7c0-6.7 5.7-8.2 11.3-8.8 5.3-.6 7.4-.6 7.4-2.7v-.1c0-3.3-1.9-5.3-5.6-5.3-3.9 0-6 2-6.8 4.1l-5.4-1.2c1.9-5.4 6.8-7.5 12.2-7.5 4.7 0 11.4 1.7 11.4 10.3V143h-5.6v-4h-.2c-1.1 2.2-3.8 4.7-8.7 4.7C605.1 143.7 600.8 140.5 600.8 134.7zM619.5 132.4v-3.8c-.8.8-5.2 1.3-7.1 1.6-3.3.4-6 1.5-6 4.6 0 2.8 2.3 4.3 5.6 4.3C616.7 139 619.5 135.9 619.5 132.4z"/><path d="M632.2 105.6c0-1.9 1.6-3.4 3.6-3.4 2 0 3.6 1.6 3.6 3.4 0 1.9-1.6 3.4-3.6 3.4C633.8 109 632.2 107.5 632.2 105.6zM632.9 113.5h5.7V143h-5.7V113.5z"/><path d="M652.1 143h-5.7v-29.5h5.5v4.8h.4c1.4-3.1 4.3-5.2 8.7-5.2 6 0 10 3.8 10 11.1V143h-5.7v-18c0-4.3-2.4-6.8-6.3-6.8-4 0-6.9 2.7-6.9 7.4V143z"/><path d="M691.5 134.7c0-6.7 5.7-8.2 11.3-8.8 5.3-.6 7.4-.6 7.4-2.7v-.1c0-3.3-1.9-5.3-5.6-5.3-3.9 0-6 2-6.8 4.1l-5.4-1.2c1.9-5.4 6.8-7.5 12.2-7.5 4.7 0 11.4 1.7 11.4 10.3V143h-5.6v-4h-.2c-1.1 2.2-3.8 4.7-8.7 4.7C695.9 143.7 691.5 140.5 691.5 134.7zM710.3 132.4v-3.8c-.8.8-5.2 1.3-7.1 1.6-3.3.4-6 1.5-6 4.6 0 2.8 2.3 4.3 5.6 4.3C707.5 139 710.3 135.9 710.3 132.4z"/><path d="M737.4 118.1h-6v16.2c0 3.3 1.7 3.9 3.5 3.9.9 0 1.6-.2 2-.2l1 4.7c-.7.2-1.9.6-3.7.6-4.5.1-8.6-2.5-8.6-7.8v-17.4h-4.3v-4.6h4.3v-7.1h5.7v7.1h6V118.1z"/><path d="M757.4 118.1h-6v16.2c0 3.3 1.7 3.9 3.5 3.9.9 0 1.6-.2 2-.2l1 4.7c-.7.2-1.9.6-3.7.6-4.5.1-8.6-2.5-8.6-7.8v-17.4h-4.3v-4.6h4.3v-7.1h5.7v7.1h6V118.1z"/><path d="M762.4 134.7c0-6.7 5.7-8.2 11.3-8.8 5.3-.6 7.4-.6 7.4-2.7v-.1c0-3.3-1.9-5.3-5.6-5.3-3.9 0-6 2-6.8 4.1l-5.4-1.2c1.9-5.4 6.8-7.5 12.2-7.5 4.7 0 11.4 1.7 11.4 10.3V143h-5.6v-4h-.2c-1.1 2.2-3.8 4.7-8.7 4.7C766.7 143.7 762.4 140.5 762.4 134.7zM781.2 132.4v-3.8c-.8.8-5.2 1.3-7.1 1.6-3.3.4-6 1.5-6 4.6 0 2.8 2.3 4.3 5.6 4.3C778.4 139 781.2 135.9 781.2 132.4z"/><path d="M793.2 128.4c0-9 5.4-15.2 13.7-15.2 6.7 0 11.5 4 12.2 9.9h-5.6c-.6-2.8-2.8-5.1-6.5-5.1-4.8 0-8 4-8 10.3 0 6.4 3.1 10.5 8 10.5 3.3 0 5.8-1.9 6.5-5.1h5.6c-.6 5.7-5.1 9.9-12.1 9.9C798.4 143.6 793.2 137.3 793.2 128.4z"/><path d="M825.2 103.7h5.7V126h.5l11.7-12.5h6.9l-11.9 12.6 12.7 16.8h-7l-10-13.3-2.9 2.9V143h-5.7V103.7z"/><path d="M763.2 953.6c0-1 .4-2 1.1-2.7.7-.7 1.7-1.1 2.7-1.1 1 0 2 .4 2.7 1.1.7.7 1.1 1.7 1.1 2.7 0 .5-.1 1-.3 1.5-.2.5-.5.9-.8 1.2-.4.3-.8.6-1.2.8-.5.2-.9.3-1.5.3s-1-.1-1.5-.3c-.5-.2-.9-.5-1.2-.8-.4-.4-.6-.8-.8-1.2C763.2 954.6 763.2 954.1 763.2 953.6zM763.9 953.6c0 .4.1.8.2 1.2s.4.7.6 1c.3.3.6.5 1 .7.4.2.8.2 1.2.2.8 0 1.7-.4 2.2-.9.6-.6.9-1.3.9-2.2 0-.8-.4-1.7-.9-2.2-.6-.6-1.4-.9-2.2-.9-.4 0-.8.1-1.2.2-.4.2-.7.4-1 .7-.3.3-.5.6-.6 1C763.9 952.8 763.9 953.2 763.9 953.6zM766.4 955.8h-.9v-4.3h1.7c.9 0 1.6.5 1.6 1.3 0 .3-.1.5-.2.8-.2.2-.4.4-.6.5l.9 1.8h-1l-.8-1.6h-.6L766.4 955.8 766.4 955.8zM767.2 952.3h-.8v1.1h.8c.4 0 .7-.1.7-.5S767.5 952.3 767.2 952.3z"/><g clip-rule="evenodd" fill-rule="evenodd"><path d="M583.4 983.8l-15.7-23.4v23.4h-7v-33.9h8.1l14.8 22.2v-22.2h7v33.9H583.4z"/><path d="M606.5 960.1c-7.1 0-12.7 5.2-12.7 12.2 0 7 5.6 12 12.7 12 7.1 0 12.7-5.2 12.7-12.2C619.2 965.2 613.5 960.1 606.5 960.1zM606.5 978.1c-3.2 0-5.8-2.4-5.8-5.9 0-3.5 2.5-5.9 5.7-5.9 3.2 0 5.8 2.4 5.8 5.9C612.2 975.6 609.7 978.1 606.5 978.1z"/><path d="M636.7 960.6v6.6c-.7-.1-1.5-.2-2.2-.2-3.2 0-5.5 2.2-5.5 6.6v10.2h-6.7v-23.1h6.4v3.4h.1c1.2-2.6 3.6-3.6 6-3.6C635.5 960.3 636.1 960.4 636.7 960.6z"/><path d="M656.2 949.8v13.5h-.1c-2.4-2.8-5.6-3.1-7-3.1-6.7 0-11.1 6.1-11.1 12 0 6.2 4.3 12 11.1 12 1.6 0 5.1-.2 7.3-3.4h.1v2.9h6.6v-33.9H656.2zM650.6 978.1c-3.2 0-5.8-2.4-5.8-5.9 0-3.5 2.6-5.9 5.8-5.9 3.2 0 5.8 2.4 5.8 5.9C656.4 975.6 653.8 978.1 650.6 978.1z"/><path d="M677.4 983.8l-12.3-33.9h7.6l8.8 25.8 8.9-25.8h7.5l-12.4 33.9H677.4z"/><path d="M713.5 949.8h-12.7v34h7.1v-12h5.4c7.1 0 12.4-3.6 12.4-11.1C725.7 953.5 720.4 949.8 713.5 949.8zM712.9 965.2h-5.1v-8.8h5c2.9 0 5.7 1.1 5.7 4.4C718.6 964 715.7 965.2 712.9 965.2z"/><path d="M751.9 983.8l-15.7-23.4v23.4h-7v-33.9h8.1l14.8 22.2v-22.2h7v33.9H751.9z"/><path d="M455.3 999.9c-5.5-7.5-8.4-16.6-8.4-25.9 0-24.4 19.8-44.1 44.2-44.1s44.2 19.7 44.2 44.1c0 9.3-2.9 18.4-8.4 25.9l-21.2-34.4-2.1 3.5 2.1 9.6-14.6-24.9-9 15.2 2.1 9.7-7.7-13L455.3 999.9z" fill="#3e5fff"/></g><path d="M431.1 384.7h10.2c6.1 0 8.9 3.5 8.9 7.7 0 3.8-2.2 5.4-4.7 6.1v.3c2.7.2 5.9 2.7 5.9 7.3 0 4.4-2.8 7.7-9.7 7.7h-10.5V384.7zM441.1 397.5c3.2 0 5.7-2 5.7-5.1 0-2.6-1.7-4.6-5.6-4.6h-6.6v9.7H441.1zM441.6 410.7c4.6 0 6.4-2 6.4-4.6 0-3-2.4-5.5-6.2-5.5h-7.2v10.1H441.6z"/><path d="M455.6 407.6c0-5 4.4-5.9 8.5-6.4 4-.5 5.6-.4 5.6-2v-.1c0-2.8-1.5-4.4-4.6-4.4-3.2 0-4.9 1.7-5.7 3.3l-3.2-1.1c1.7-4 5.5-5.1 8.8-5.1 2.8 0 8.1.8 8.1 7.7v14.4h-3.4v-3h-.2c-.7 1.4-2.7 3.5-6.5 3.5C458.9 414.3 455.6 411.9 455.6 407.6zM469.7 405.9v-3.1c-.6.7-4.4 1.1-5.8 1.2-2.6.3-4.9 1.1-4.9 3.7 0 2.3 1.9 3.5 4.6 3.5C467.6 411.3 469.7 408.7 469.7 405.9z"/><path d="M478.2 403c0-6.6 3.9-11.3 9.8-11.3 4.6 0 8.1 2.7 8.6 6.8h-3.4c-.5-2-2.3-3.8-5.2-3.8-3.9 0-6.5 3.2-6.5 8.2 0 5.1 2.6 8.4 6.5 8.4 2.6 0 4.6-1.4 5.2-3.8h3.4c-.6 3.9-3.8 6.8-8.6 6.8C481.9 414.3 478.2 409.6 478.2 403z"/><path d="M501.5 384.7h3.4v17h.4l9.5-9.7h4.1l-9.2 9.3 9.9 12.5h-4.3l-8.2-10.3-2.3 2.2v8.2h-3.4V384.7z"/><path d="M521.4 403c0-6.9 3.8-11.3 9.3-11.3 4.3 0 5.6 2.6 6.3 3.8h.3v-10.7h3.4v29.1h-3.2v-3.4H537c-.7 1.2-2.2 3.8-6.4 3.8C525.2 414.3 521.4 409.9 521.4 403zM537.3 402.9c0-4.9-2.2-8.2-6.3-8.2-4.3 0-6.4 3.6-6.4 8.2 0 4.7 2.2 8.4 6.4 8.4C535.1 411.3 537.3 407.9 537.3 402.9z"/><path d="M546.2 403c0-6.8 4-11.3 9.9-11.3s9.9 4.5 9.9 11.3c0 6.8-4 11.3-9.9 11.3S546.2 409.8 546.2 403zM562.6 403c0-4.4-2-8.3-6.5-8.3-4.5 0-6.5 3.9-6.5 8.3 0 4.4 2 8.2 6.5 8.2C560.6 411.3 562.6 407.4 562.6 403z"/><path d="M570.1 403c0-6.8 4-11.3 9.9-11.3s9.9 4.5 9.9 11.3c0 6.8-4 11.3-9.9 11.3S570.1 409.8 570.1 403zM586.5 403c0-4.4-2-8.3-6.5-8.3-4.5 0-6.5 3.9-6.5 8.3 0 4.4 2 8.2 6.5 8.2C584.4 411.3 586.5 407.4 586.5 403z"/><path d="M594.9 392h3.2v3.3h.2c.8-2.2 3.1-3.6 5.7-3.6.5 0 1.4 0 1.8.1v3.4c-.2-.1-1.2-.2-2-.2-3.2 0-5.5 2.2-5.5 5.1v13.8h-3.4V392z"/><path d="M620.1 407.6c0-5 4.4-5.9 8.5-6.4 4-.5 5.6-.4 5.6-2v-.1c0-2.8-1.5-4.4-4.6-4.4-3.2 0-4.9 1.7-5.7 3.3l-3.2-1.1c1.7-4 5.5-5.1 8.8-5.1 2.8 0 8.1.8 8.1 7.7v14.4h-3.4v-3H634c-.7 1.4-2.7 3.5-6.5 3.5C623.3 414.3 620.1 411.9 620.1 407.6zM634.1 405.9v-3.1c-.6.7-4.4 1.1-5.8 1.2-2.6.3-4.9 1.1-4.9 3.7 0 2.3 1.9 3.5 4.6 3.5C632 411.3 634.1 408.7 634.1 405.9z"/><path d="M642.6 403c0-6.6 3.9-11.3 9.8-11.3 4.6 0 8.1 2.7 8.6 6.8h-3.4c-.5-2-2.3-3.8-5.2-3.8-3.9 0-6.5 3.2-6.5 8.2 0 5.1 2.6 8.4 6.5 8.4 2.6 0 4.6-1.4 5.2-3.8h3.4c-.6 3.9-3.8 6.8-8.6 6.8C646.4 414.3 642.6 409.6 642.6 403z"/><path d="M664.9 403c0-6.6 3.9-11.3 9.8-11.3 4.6 0 8.1 2.7 8.6 6.8H680c-.5-2-2.3-3.8-5.2-3.8-3.9 0-6.5 3.2-6.5 8.2 0 5.1 2.6 8.4 6.5 8.4 2.6 0 4.6-1.4 5.2-3.8h3.4c-.6 3.9-3.8 6.8-8.6 6.8C668.7 414.3 664.9 409.6 664.9 403z"/><path d="M687.3 403.1c0-6.7 3.9-11.4 9.8-11.4 4.5 0 9.4 2.8 9.4 10.9v1.4h-15.8c.2 4.7 2.9 7.2 6.8 7.2 2.6 0 4.6-1.1 5.5-3.4l3.2.9c-1 3.3-4.3 5.5-8.7 5.5C691.1 414.3 687.3 409.8 687.3 403.1zM703.1 401.2c0-3.7-2.3-6.4-6-6.4-3.8 0-6.2 3-6.5 6.4H703.1z"/><path d="M724 397.7c-.6-1.5-1.8-3.1-4.7-3.1-2.7 0-4.7 1.4-4.7 3.2 0 1.7 1.2 2.5 3.8 3.2l3.2.8c3.9 1 5.8 2.9 5.8 5.9 0 3.8-3.5 6.5-8.5 6.5-4.5 0-7.5-2-8.3-5.7l3.2-.8c.6 2.3 2.3 3.5 5.1 3.5 3.1 0 5.1-1.5 5.1-3.4 0-1.5-1-2.6-3.2-3.1l-3.6-.9c-4-.9-5.8-3-5.8-6 0-3.7 3.4-6.3 8-6.3 4.3 0 6.7 2.1 7.7 5.2L724 397.7z"/><path d="M744.9 397.7c-.6-1.5-1.8-3.1-4.7-3.1-2.7 0-4.7 1.4-4.7 3.2 0 1.7 1.2 2.5 3.8 3.2l3.2.8c3.9 1 5.8 2.9 5.8 5.9 0 3.8-3.5 6.5-8.5 6.5-4.5 0-7.5-2-8.3-5.7l3.2-.8c.6 2.3 2.3 3.5 5.1 3.5 3.1 0 5.1-1.5 5.1-3.4 0-1.5-1-2.6-3.2-3.1L738 404c-4-.9-5.8-3-5.8-6 0-3.7 3.4-6.3 8-6.3 4.3 0 6.7 2.1 7.7 5.2L744.9 397.7z"/><path d="M503.2 702.8v-29.1h9.4c8.5 0 13.5 5.5 13.5 14.5 0 9.1-5 14.6-13.9 14.6H503.2zM511.9 699.6c7.2 0 10.7-4.4 10.7-11.5 0-7-3.5-11.4-10.3-11.4h-5.6v22.8H511.9z"/><path d="M530.4 696.6c0-5 4.4-5.9 8.5-6.4 4-.5 5.6-.4 5.6-2V688c0-2.8-1.5-4.4-4.6-4.4-3.2 0-4.9 1.7-5.7 3.3l-3.2-1.1c1.7-4 5.5-5.1 8.8-5.1 2.8 0 8.1.8 8.1 7.7v14.4h-3.4v-3h-.2c-.7 1.4-2.7 3.5-6.5 3.5C533.7 703.3 530.4 700.8 530.4 696.6zM544.5 694.9v-3.1c-.6.7-4.4 1.1-5.8 1.2-2.6.3-4.9 1.1-4.9 3.7 0 2.3 1.9 3.5 4.6 3.5C542.4 700.3 544.5 697.6 544.5 694.9z"/><path d="M563.5 683.8h-4.7v12.7c0 2.8 1.4 3.3 2.9 3.3.7 0 1.2-.1 1.5-.2l.7 3c-.5.2-1.3.4-2.5.4-2.8 0-5.9-1.8-5.9-5.6v-13.6h-3.3v-2.8h3.3v-5.2h3.4v5.2h4.7V683.8z"/><path d="M567.5 696.6c0-5 4.4-5.9 8.5-6.4 4-.5 5.6-.4 5.6-2V688c0-2.8-1.5-4.4-4.6-4.4-3.2 0-4.9 1.7-5.7 3.3l-3.2-1.1c1.7-4 5.5-5.1 8.8-5.1 2.8 0 8.1.8 8.1 7.7v14.4h-3.4v-3h-.2c-.7 1.4-2.7 3.5-6.5 3.5C570.8 703.3 567.5 700.8 567.5 696.6zM581.6 694.9v-3.1c-.6.7-4.4 1.1-5.8 1.2-2.6.3-4.9 1.1-4.9 3.7 0 2.3 1.9 3.5 4.6 3.5C579.5 700.3 581.6 697.6 581.6 694.9z"/><path d="M612.1 683.8h-4.9v19h-3.4v-19h-3.5v-2.8h3.5v-3c0-3.8 3-5.6 6.1-5.6 1.6 0 2.7.3 3.2.6l-1 2.9c-.3-.1-.9-.3-1.9-.3-2.2 0-3.1 1.1-3.1 3.3v2.2h4.9V683.8z"/><path d="M620.1 702.8h-3.4v-29.1h3.4V702.8z"/><path d="M625.2 692c0-6.8 4-11.3 9.9-11.3 5.9 0 9.9 4.5 9.9 11.3 0 6.8-4 11.3-9.9 11.3C629.2 703.2 625.2 698.7 625.2 692zM641.7 692c0-4.4-2-8.3-6.5-8.3-4.5 0-6.5 3.9-6.5 8.3 0 4.4 2 8.2 6.5 8.2C639.6 700.2 641.7 696.3 641.7 692z"/><path d="M647.7 680.9h3.5l4.7 16.7h.2l4.7-16.7h3.6l4.6 16.6h.2l4.7-16.6h3.5l-6.6 21.8h-3.3l-4.8-16.8h-.3l-4.8 16.8h-3.3L647.7 680.9z"/><path d="M140.9 318.6l28.8-49.9c4.6-7.9 13-12.7 22.1-12.7h58.8c9 0 17.4 4.8 22 12.6l29.1 49.5c4.7 8 4.7 17.9-.1 25.9l-29 48.9c-4.6 7.7-12.9 12.5-21.9 12.5h-59c-9 0-17.4-4.8-22-12.5L141 344.3C136.3 336.4 136.3 326.6 140.9 318.6z" fill="#ff7059"/><path d="M136.5 467.1l10.7-29.1h3.6l10.7 29.1h-3.7l-2.9-8.2h-11.8l-2.9 8.2H136.5zM153.8 455.7l-4.7-13.1h-.2l-4.7 13.1H153.8z"/><path d="M173.7 448.1H169v12.7c0 2.8 1.4 3.3 2.9 3.3.7 0 1.2-.1 1.5-.2l.7 3c-.5.2-1.3.4-2.5.4-2.8 0-5.9-1.8-5.9-5.6v-13.6h-3.3v-2.8h3.3v-5.2h3.4v5.2h4.7V448.1z"/><path d="M188.2 448.1h-4.7v12.7c0 2.8 1.4 3.3 2.9 3.3.7 0 1.2-.1 1.5-.2l.7 3c-.5.2-1.3.4-2.5.4-2.8 0-5.9-1.8-5.9-5.6v-13.6h-3.3v-2.8h3.3v-5.2h3.4v5.2h4.7V448.1z"/><path d="M192.3 460.9c0-5 4.4-5.9 8.5-6.4 4-.5 5.6-.4 5.6-2v-.1c0-2.8-1.5-4.4-4.6-4.4-3.2 0-4.9 1.7-5.7 3.3l-3.2-1.1c1.7-4 5.5-5.1 8.8-5.1 2.8 0 8.1.8 8.1 7.7v14.4h-3.4v-3h-.2c-.7 1.4-2.7 3.5-6.5 3.5C195.6 467.6 192.3 465.2 192.3 460.9zM206.4 459.2v-3.1c-.6.7-4.4 1.1-5.8 1.2-2.6.3-4.9 1.1-4.9 3.7 0 2.3 1.9 3.5 4.6 3.5C204.2 464.6 206.4 461.9 206.4 459.2z"/><path d="M214.8 456.3c0-6.6 3.9-11.3 9.8-11.3 4.6 0 8.1 2.7 8.6 6.8h-3.4c-.5-2-2.3-3.8-5.2-3.8-3.9 0-6.5 3.2-6.5 8.2 0 5.1 2.6 8.4 6.5 8.4 2.6 0 4.6-1.4 5.2-3.8h3.4c-.6 3.9-3.8 6.8-8.6 6.8C218.6 467.6 214.8 462.8 214.8 456.3z"/><path d="M238.2 438h3.4v17h.4l9.5-9.7h4.1l-9.2 9.3 9.9 12.5H252l-8.2-10.3-2.3 2.2v8.2h-3.4V438z"/><path d="M258 456.4c0-6.7 3.9-11.4 9.8-11.4 4.5 0 9.4 2.8 9.4 10.9v1.4h-15.8c.2 4.7 2.9 7.2 6.8 7.2 2.6 0 4.6-1.1 5.5-3.4l3.2.9c-1 3.3-4.3 5.5-8.7 5.5C261.9 467.6 258 463.1 258 456.4zM273.8 454.4c0-3.7-2.3-6.4-6-6.4-3.8 0-6.2 3-6.5 6.4H273.8z"/><path d="M282.3 445.3h3.2v3.3h.2c.8-2.2 3.1-3.6 5.7-3.6.5 0 1.4 0 1.8.1v3.4c-.2-.1-1.2-.2-2-.2-3.2 0-5.5 2.2-5.5 5.1v13.8h-3.4V445.3z"/><path d="M133.2 752.4H155v3.1h-9.1v26h-3.5v-26h-9.1V752.4z"/><path d="M156 775.3c0-5 4.4-5.9 8.5-6.4 4-.5 5.6-.4 5.6-2v-.1c0-2.8-1.5-4.4-4.6-4.4-3.2 0-4.9 1.7-5.7 3.3l-3.2-1.1c1.7-4 5.5-5.1 8.8-5.1 2.8 0 8.1.8 8.1 7.7v14.4h-3.4v-3h-.2c-.7 1.4-2.7 3.5-6.5 3.5C159.3 782 156 779.6 156 775.3zM170.1 773.6v-3.1c-.6.7-4.4 1.1-5.8 1.2-2.6.3-4.9 1.1-4.9 3.7 0 2.3 1.9 3.5 4.6 3.5C167.9 779 170.1 776.4 170.1 773.6z"/><path d="M179.6 759.7h3.2v3.3h.2c.8-2.2 3.1-3.6 5.7-3.6.5 0 1.4 0 1.8.1v3.4c-.2-.1-1.2-.2-2-.2-3.2 0-5.5 2.2-5.5 5.1v13.8h-3.4V759.7z"/><path d="M193.7 785.8l2.7-1.9c.9 1.2 2.3 3.3 6.3 3.3 3.5 0 6.1-1.6 6.1-5.3v-4.4h-.3c-.7 1.2-2.1 3.7-6.4 3.7-5.3 0-9.3-3.9-9.3-10.7 0-6.7 3.8-11.1 9.3-11.1 4.3 0 5.6 2.6 6.4 3.8h.3v-3.5h3.2v22.4c0 5.6-4.2 8-9.4 8C197.7 790.2 195 788.1 193.7 785.8zM208.7 770.5c0-4.7-2.2-8-6.3-8-4.3 0-6.4 3.6-6.4 8 0 4.5 2.2 7.7 6.4 7.7C206.5 778.2 208.7 775.3 208.7 770.5z"/><path d="M217.1 770.8c0-6.7 3.9-11.4 9.8-11.4 4.5 0 9.4 2.8 9.4 10.9v1.4h-15.8c.2 4.7 2.9 7.2 6.8 7.2 2.6 0 4.6-1.1 5.5-3.4l3.2.9c-1 3.3-4.3 5.5-8.7 5.5C221 782 217.1 777.5 217.1 770.8zM232.9 768.9c0-3.7-2.3-6.4-6-6.4-3.8 0-6.2 3-6.5 6.4H232.9z"/><path d="M250.9 762.6h-4.7v12.7c0 2.8 1.4 3.3 2.9 3.3.7 0 1.2-.1 1.5-.2l.7 3c-.5.2-1.3.4-2.5.4-2.8 0-5.9-1.8-5.9-5.6v-13.6h-3.3v-2.8h3.3v-5.2h3.4v5.2h4.7V762.6z"/><path d="M254.7 770.8c0-6.7 3.9-11.4 9.8-11.4 4.5 0 9.4 2.8 9.4 10.9v1.4h-15.8c.2 4.7 2.9 7.2 6.8 7.2 2.6 0 4.6-1.1 5.5-3.4l3.2.9c-1 3.3-4.3 5.5-8.7 5.5C258.6 782 254.7 777.5 254.7 770.8zM270.5 768.9c0-3.7-2.3-6.4-6-6.4-3.8 0-6.2 3-6.5 6.4H270.5z"/><path d="M278 770.7c0-6.9 3.8-11.3 9.3-11.3 4.3 0 5.6 2.6 6.3 3.8h.3v-10.7h3.4v29.1h-3.2v-3.4h-.4c-.7 1.2-2.2 3.8-6.4 3.8C281.8 782 278 777.6 278 770.7zM294 770.6c0-4.9-2.2-8.2-6.3-8.2-4.3 0-6.4 3.6-6.4 8.2 0 4.7 2.2 8.4 6.4 8.4C291.8 779 294 775.6 294 770.6z"/><path d="M101.4 818.7c0-6.8 4-11.3 9.9-11.3s9.9 4.5 9.9 11.3c0 6.8-4 11.3-9.9 11.3S101.4 825.5 101.4 818.7zM117.8 818.7c0-4.4-2-8.3-6.5-8.3-4.5 0-6.5 3.9-6.5 8.3 0 4.4 2 8.2 6.5 8.2C115.7 827 117.8 823.1 117.8 818.7z"/><path d="M126.3 807.7h3.2v3.3h.2c.8-2.2 3.1-3.6 5.7-3.6.5 0 1.4 0 1.8.1v3.4c-.2-.1-1.2-.2-2-.2-3.2 0-5.5 2.2-5.5 5.1v13.8h-3.4V807.7z"/><path d="M140.3 833.8l2.7-1.9c.9 1.2 2.3 3.3 6.3 3.3 3.5 0 6.1-1.6 6.1-5.3v-4.4h-.3c-.7 1.2-2.1 3.7-6.4 3.7-5.3 0-9.3-3.9-9.3-10.7 0-6.7 3.8-11.1 9.3-11.1 4.3 0 5.6 2.6 6.4 3.8h.3v-3.5h3.2v22.4c0 5.6-4.2 8-9.4 8C144.4 838.2 141.7 836.1 140.3 833.8zM155.4 818.5c0-4.7-2.2-8-6.3-8-4.3 0-6.4 3.6-6.4 8 0 4.5 2.2 7.7 6.4 7.7C153.2 826.2 155.4 823.3 155.4 818.5z"/><path d="M163.8 823.3c0-5 4.4-5.9 8.5-6.4 4-.5 5.6-.4 5.6-2v-.1c0-2.8-1.5-4.4-4.6-4.4-3.2 0-4.9 1.7-5.7 3.3l-3.2-1.1c1.7-4 5.5-5.1 8.8-5.1 2.8 0 8.1.8 8.1 7.7v14.4h-3.4v-3h-.2c-.7 1.4-2.7 3.5-6.5 3.5C167.1 830 163.8 827.6 163.8 823.3zM177.9 821.6v-3.1c-.6.7-4.4 1.1-5.8 1.2-2.6.3-4.9 1.1-4.9 3.7 0 2.3 1.9 3.5 4.6 3.5C175.7 827 177.9 824.4 177.9 821.6z"/><path d="M190.7 829.5h-3.4v-21.8h3.2v3.4h.3c1-2.2 3.1-3.7 6.4-3.7 4.4 0 7.4 2.7 7.4 8.2v13.9h-3.4v-13.6c0-3.4-1.9-5.5-5-5.5-3.2 0-5.6 2.2-5.6 6V829.5z"/><path d="M210.1 801.8c0-1.2 1.1-2.3 2.4-2.3 1.3 0 2.4 1 2.4 2.3s-1.1 2.3-2.4 2.3C211.2 804.1 210.1 803.1 210.1 801.8zM210.8 807.7h3.4v21.8h-3.4V807.7z"/><path d="M219.7 827l12.4-15.9v-.2h-12v-3.1h16.3v2.7l-12 15.8v.2h12.4v3.1h-17.1V827z"/><path d="M240.9 823.3c0-5 4.4-5.9 8.5-6.4 4-.5 5.6-.4 5.6-2v-.1c0-2.8-1.5-4.4-4.6-4.4-3.2 0-4.9 1.7-5.7 3.3l-3.2-1.1c1.7-4 5.5-5.1 8.8-5.1 2.8 0 8.1.8 8.1 7.7v14.4H255v-3h-.2c-.7 1.4-2.7 3.5-6.5 3.5C244.2 830 240.9 827.6 240.9 823.3zM255 821.6v-3.1c-.6.7-4.4 1.1-5.8 1.2-2.6.3-4.9 1.1-4.9 3.7 0 2.3 1.9 3.5 4.6 3.5C252.8 827 255 824.4 255 821.6z"/><path d="M274 810.6h-4.7v12.7c0 2.8 1.4 3.3 2.9 3.3.7 0 1.2-.1 1.5-.2l.7 3c-.5.2-1.3.4-2.5.4-2.8 0-5.9-1.8-5.9-5.6v-13.6h-3.3v-2.8h3.3v-5.2h3.4v5.2h4.7V810.6z"/><path d="M278.4 801.8c0-1.2 1.1-2.3 2.4-2.3 1.3 0 2.4 1 2.4 2.3s-1.1 2.3-2.4 2.3C279.4 804.1 278.4 803.1 278.4 801.8zM279 807.7h3.4v21.8H279V807.7z"/><path d="M287.5 818.7c0-6.8 4-11.3 9.9-11.3s9.9 4.5 9.9 11.3c0 6.8-4 11.3-9.9 11.3S287.5 825.5 287.5 818.7zM303.9 818.7c0-4.4-2-8.3-6.5-8.3-4.5 0-6.5 3.9-6.5 8.3 0 4.4 2 8.2 6.5 8.2C301.9 827 303.9 823.1 303.9 818.7z"/><path d="M315.7 829.5h-3.4v-21.8h3.2v3.4h.3c1-2.2 3.1-3.7 6.4-3.7 4.4 0 7.4 2.7 7.4 8.2v13.9h-3.4v-13.6c0-3.4-1.9-5.5-5-5.5-3.2 0-5.6 2.2-5.6 6V829.5z"/><path d="M881 579.1h21.8v3.1h-9.1v26h-3.5v-26H881V579.1z"/><path d="M911.2 608.2h-3.4v-29.1h3.4v10.7h.3c1-2.3 3-3.7 6.4-3.7 4.5 0 7.4 2.6 7.4 8.2v13.9h-3.4v-13.6c0-3.5-1.9-5.5-5.1-5.5-3.3 0-5.7 2.2-5.7 6V608.2z"/><path d="M930.8 580.5c0-1.2 1.1-2.3 2.4-2.3 1.3 0 2.4 1 2.4 2.3s-1.1 2.3-2.4 2.3C931.8 582.7 930.8 581.7 930.8 580.5zM931.4 586.4h3.4v21.8h-3.4V586.4z"/><path d="M940.9 586.4h3.2v3.3h.2c.8-2.2 3.1-3.6 5.7-3.6.5 0 1.4 0 1.8.1v3.4c-.2-.1-1.2-.2-2-.2-3.2 0-5.5 2.2-5.5 5.1v13.8h-3.4V586.4z"/><path d="M954.1 597.3c0-6.9 3.8-11.3 9.3-11.3 4.3 0 5.6 2.6 6.3 3.8h.3v-10.7h3.4v29.1h-3.2v-3.4h-.4c-.7 1.2-2.2 3.8-6.4 3.8C957.9 608.7 954.1 604.3 954.1 597.3zM970.1 597.3c0-4.9-2.2-8.2-6.3-8.2-4.3 0-6.4 3.6-6.4 8.2 0 4.7 2.2 8.4 6.4 8.4C967.9 605.6 970.1 602.2 970.1 597.3z"/><path d="M992.5 597.3h-12.7v-3.1h12.7V597.3z"/><path d="M998.4 586.4h3.2v3.5h.4c.7-1.1 2-3.8 6.3-3.8 5.5 0 9.3 4.4 9.3 11.3 0 6.9-3.8 11.3-9.3 11.3-4.2 0-5.6-2.6-6.4-3.8h-.3v11.5h-3.4V586.4zM1007.9 605.6c4.2 0 6.4-3.7 6.4-8.4 0-4.6-2.1-8.2-6.4-8.2-4.1 0-6.2 3.3-6.2 8.2C1001.7 602.2 1003.9 605.6 1007.9 605.6z"/><path d="M1021.7 602c0-5 4.4-5.9 8.5-6.4 4-.5 5.6-.4 5.6-2v-.1c0-2.8-1.5-4.4-4.6-4.4-3.2 0-4.9 1.7-5.7 3.3l-3.2-1.1c1.7-4 5.5-5.1 8.8-5.1 2.8 0 8.1.8 8.1 7.7v14.4h-3.4v-3h-.2c-.7 1.4-2.7 3.5-6.5 3.5C1025 608.7 1021.7 606.3 1021.7 602zM1035.8 600.3v-3.1c-.6.7-4.4 1.1-5.8 1.2-2.6.3-4.9 1.1-4.9 3.7 0 2.3 1.9 3.5 4.6 3.5C1033.6 605.7 1035.8 603 1035.8 600.3z"/><path d="M1045.3 586.4h3.2v3.3h.2c.8-2.2 3.1-3.6 5.7-3.6.5 0 1.4 0 1.8.1v3.4c-.2-.1-1.2-.2-2-.2-3.2 0-5.5 2.2-5.5 5.1v13.8h-3.4V586.4z"/><path d="M1071 589.2h-4.7v12.7c0 2.8 1.4 3.3 2.9 3.3.7 0 1.2-.1 1.5-.2l.7 3c-.5.2-1.3.4-2.5.4-2.8 0-5.9-1.8-5.9-5.6v-13.6h-3.3v-2.8h3.3v-5.2h3.4v5.2h4.7V589.2z"/><path d="M1075.8 616l.9-3c2.4.6 3.9.3 5.2-3l.6-1.7-8.1-21.9h3.6l6 17.4h.2l6-17.4h3.6l-9.3 25c-1.3 3.4-3.4 5-6.4 5C1077.1 616.4 1076.1 616.2 1075.8 616z"/><path d="M928.5 656.2h-3.4l-8.1-21.8h3.6l6 17.4h.2l6-17.4h3.6L928.5 656.2z"/><path d="M939.2 645.5c0-6.7 3.9-11.4 9.8-11.4 4.5 0 9.4 2.8 9.4 10.9v1.4h-15.8c.2 4.7 2.9 7.2 6.8 7.2 2.6 0 4.6-1.1 5.5-3.4l3.2.9c-1 3.3-4.3 5.5-8.7 5.5C943.1 656.7 939.2 652.2 939.2 645.5zM955 643.5c0-3.7-2.3-6.4-6-6.4-3.8 0-6.2 3-6.5 6.4H955z"/><path d="M966.9 656.2h-3.4v-21.8h3.2v3.4h.3c1-2.2 3.1-3.7 6.4-3.7 4.4 0 7.4 2.7 7.4 8.2v13.9h-3.4v-13.6c0-3.4-1.9-5.5-5-5.5-3.2 0-5.6 2.2-5.6 6V656.2z"/><path d="M985.9 645.3c0-6.9 3.8-11.3 9.3-11.3 4.3 0 5.6 2.6 6.3 3.8h.3v-10.7h3.4v29.1h-3.2v-3.4h-.4c-.7 1.2-2.2 3.8-6.4 3.8C989.7 656.7 985.9 652.3 985.9 645.3zM1001.9 645.3c0-4.9-2.2-8.2-6.3-8.2-4.3 0-6.4 3.6-6.4 8.2 0 4.7 2.2 8.4 6.4 8.4C999.6 653.6 1001.9 650.2 1001.9 645.3z"/><path d="M1010.7 645.4c0-6.8 4-11.3 9.9-11.3 5.9 0 9.9 4.5 9.9 11.3 0 6.8-4 11.3-9.9 11.3C1014.7 656.7 1010.7 652.2 1010.7 645.4zM1027.1 645.4c0-4.4-2-8.3-6.5-8.3s-6.5 3.9-6.5 8.3c0 4.4 2 8.2 6.5 8.2S1027.1 649.8 1027.1 645.4z"/><path d="M1035.6 634.4h3.2v3.3h.2c.8-2.2 3.1-3.6 5.7-3.6.5 0 1.4 0 1.8.1v3.4c-.2-.1-1.2-.2-2-.2-3.2 0-5.5 2.2-5.5 5.1v13.8h-3.4V634.4z"/><circle cx="219.9" cy="644.8" fill="#3e5fff" r="75"/><path d="M221.3 302.8c-36.1 0-41.9 17.2-41.9 30.5 0 15.4 11.5 25.4 25.6 25.4 4 0 7.4-.9 9.6-5.3l2.9-5.9c.9-1.8 2.3-2.7 3.8-2.7 1.4.1 2.9.9 3.8 2.7l2.9 5.9c2.2 4.4 5.6 5.3 9.6 5.3 14.1 0 25.6-10 25.6-25.4C263.2 320 257.5 302.8 221.3 302.8zM237.6 354c-3.5 0-4.5-.9-5.4-2.8l-2.9-6c-1.6-3.1-4.5-5.1-7.7-5.2h-.2l-.2 0c-3.2.1-6.1 2.1-7.8 5.3l-2.9 5.9c-.9 1.9-2 2.7-5.4 2.7-12.3 0-20.9-8.5-20.9-20.7 0-11.1 3.9-25.8 37.2-25.8 33.4 0 37.2 14.7 37.2 25.8C258.5 345.5 249.9 354 237.6 354zM202.7 321.4c-5.1 0-9.3 4.2-9.3 9.3 0 5.1 4.2 9.3 9.3 9.3 5.1 0 9.3-4.2 9.3-9.3C212 325.6 207.9 321.4 202.7 321.4zM202.7 335.4c-2.6 0-4.7-2.1-4.7-4.7 0-2.6 2.1-4.7 4.7-4.7 2.6 0 4.6 2.1 4.6 4.7C207.4 333.3 205.3 335.4 202.7 335.4zM239.9 321.4c-5.1 0-9.3 4.2-9.3 9.3 0 5.1 4.2 9.3 9.3 9.3 5.1 0 9.3-4.2 9.3-9.3C249.2 325.6 245.1 321.4 239.9 321.4zM239.9 335.4c-2.6 0-4.6-2.1-4.6-4.7 0-2.6 2.1-4.7 4.6-4.7 2.6 0 4.7 2.1 4.7 4.7C244.6 333.3 242.5 335.4 239.9 335.4z" fill="#ffffff"/><path d="M188.2 622.4c0-5 4.1-9 9-9s9 4 9 9c0 5-4.1 9-9 9S188.2 627.3 188.2 622.4zM197.2 626.9c2.5 0 4.5-2 4.5-4.5 0-2.5-2-4.5-4.5-4.5s-4.5 2-4.5 4.5C192.7 624.9 194.7 626.9 197.2 626.9zM237.9 622.4c0-5 4.1-9 9-9 5 0 9 4 9 9 0 5-4.1 9-9 9C242 631.4 237.9 627.3 237.9 622.4zM247 626.9c2.5 0 4.5-2 4.5-4.5 0-2.5-2-4.5-4.5-4.5-2.5 0-4.5 2-4.5 4.5C242.4 624.9 244.5 626.9 247 626.9zM201.5 654c0-7.6 6.1-13.6 13.6-13.6h13.6c7.5 0 13.6 5.9 13.6 13.6 0 2.5-2 4.5-4.5 4.5H206C203.5 658.5 201.5 656.5 201.5 654zM215.1 645c-5 0-9 4.1-9 9h31.6c0-5-4.1-9-9-9H215.1zM210.6 624.6c0-6.2 5.1-11.3 11.3-11.3 6.2 0 11.3 5.1 11.3 11.3 0 6.2-5.1 11.3-11.3 11.3C215.6 635.9 210.6 630.9 210.6 624.6zM221.9 631.4c3.7 0 6.8-3 6.8-6.8s-3-6.8-6.8-6.8c-3.7 0-6.8 3-6.8 6.8S218.1 631.4 221.9 631.4zM185.5 647.2c0 1.2-1 2.3-2.3 2.3-1.2 0-2.3-1-2.3-2.3V645c0-5 4-9 9-9h12.4c1.2 0 2.3 1 2.3 2.3 0 1.2-1 2.3-2.3 2.3H190c-2.5 0-4.5 2-4.5 4.5V647.2zM240.9 640.4c-1.2 0-2.3-1-2.3-2.3 0-1.2 1-2.3 2.3-2.3h12.4c5 0 9 4.1 9 9v2.3c0 1.2-1 2.3-2.3 2.3s-2.3-1-2.3-2.3V645c0-2.5-2-4.5-4.5-4.5H240.9zM264.6 667.6c1.2 0 2.3 1 2.3 2.3 0 1.2-1 2.3-2.3 2.3h-85.9c-1.2 0-2.3-1-2.3-2.3 0-1.2 1-2.3 2.3-2.3H264.6z" fill="#ffffff"/><circle cx="986.8" cy="471.2" fill="#95d1f9" r="75"/><path d="M997.8 480.6c0-1.9 1.5-3.4 3.4-3.4h6.8c1.9 0 3.4 1.5 3.4 3.4v6.8c0 1.9-1.5 3.4-3.4 3.4h-6.8c-1.9 0-3.4-1.5-3.4-3.4V480.6zM1006.8 486.3v-4.5h-4.5v4.5H1006.8zM997.8 444.5c0-1.9 1.5-3.4 3.4-3.4h6.8c1.9 0 3.4 1.5 3.4 3.4v6.8c0 1.9-1.5 3.4-3.4 3.4h-6.8c-1.9 0-3.4-1.5-3.4-3.4V444.5zM1002.3 445.6v4.5h4.5v-4.5H1002.3zM1001.2 472.7c-1.9 0-3.4-1.5-3.4-3.4v-6.8c0-1.9 1.5-3.4 3.4-3.4h6.8c1.9 0 3.4 1.5 3.4 3.4v6.8c0 1.9-1.5 3.4-3.4 3.4H1001.2zM1002.3 463.7v4.5h4.5v-4.5H1002.3zM1015.9 432c5 0 9 4 9 9v54.3c0 5-4.1 9-9 9h-22.6c-5 0-9-4.1-9-9v-54.3c0-5 4.1-9 9-9H1015.9zM1015.9 436.5h-22.6c-2.5 0-4.5 2-4.5 4.5v54.3c0 2.5 2 4.5 4.5 4.5h22.6c2.5 0 4.5-2 4.5-4.5v-54.3C1020.4 438.6 1018.4 436.5 1015.9 436.5zM977.4 454.6h-15.8c-2.5 0-4.5 2-4.5 4.5v36.2c0 2.5 2 4.5 4.5 4.5h18.1c1.2 0 2.3 1 2.3 2.3s-1 2.3-2.3 2.3h-18.1c-5 0-9-4.1-9-9v-36.2c0-5 4-9 9-9h15.8c1.2 0 2.3 1 2.3 2.3S978.7 454.6 977.4 454.6zM971.8 477.2c1.9 0 3.4 1.5 3.4 3.4v6.8c0 1.9-1.5 3.4-3.4 3.4H965c-1.9 0-3.4-1.5-3.4-3.4v-6.8c0-1.9 1.5-3.4 3.4-3.4H971.8zM970.7 486.3v-4.5h-4.5v4.5H970.7zM971.8 459.2c1.9 0 3.4 1.5 3.4 3.4v6.8c0 1.9-1.5 3.4-3.4 3.4H965c-1.9 0-3.4-1.5-3.4-3.4v-6.8c0-1.9 1.5-3.4 3.4-3.4H971.8zM970.7 468.2v-4.5h-4.5v4.5H970.7z" fill="#ffffff"/><path d="M952.8 372.5c-.5 0-1-.2-1.4-.6-40-38.4-92.3-59.5-147.3-59.5H319.3c-1.1 0-2-.9-2-2s.9-2 2-2h484.8c56.1 0 109.4 21.5 150.1 60.6.8.8.8 2 .1 2.8C953.8 372.3 953.3 372.5 952.8 372.5z" fill="#ff7059"/><path d="M907.7 392c-.4 0-.7-.1-1.1-.3-34.2-21.9-73.7-33.5-114.3-33.5H317.6c-1.1 0-2-.9-2-2s.9-2 2-2h474.7c41.3 0 81.6 11.8 116.5 34.1.9.6 1.2 1.8.6 2.8C909 391.7 908.3 392 907.7 392z" fill="#ff7059"/><path d="M773.8 648.1H317.3c-1.1 0-2-.9-2-2s.9-2 2-2h456.6c30.1 0 59.2-6.2 86.6-18.5 1-.5 2.2 0 2.6 1 .5 1 0 2.2-1 2.6C834.1 641.8 804.5 648.1 773.8 648.1z" fill="#94d0f8"/><path d="M941.8 375.6c-2.3-.2-3.5-2.7-2.3-4.6l9.2-13.5c1.3-1.9 4.1-1.7 5.1.4l7.1 14.7c1 2.1-.6 4.4-2.9 4.3L941.8 375.6z" fill="#ff7059"/><path d="M863 636.5c-1.4 1.8-4.2 1.5-5.1-.6l-6.5-15c-.9-2.1.8-4.4 3.1-4.1l16.2 1.8c2.3.3 3.4 2.9 2.1 4.7L863 636.5z" fill="#95d1f9"/><path d="M333.4 364.3c.1 2.3-2.4 3.8-4.4 2.7l-14.3-7.8c-2-1.1-2.1-4-.1-5.2l13.9-8.5c2-1.2 4.5.2 4.5 2.5L333.4 364.3z" fill="#ff7059"/></g></svg>